# xmcd
#
# Track frame offsets:
#	150
#	20755
#	41155
#	60680
#	82812
#	101725
#	122680
#	138812
#	162357
#	181337
#	198752
#
# Disc length: 2924 seconds
#
# Revision: 0
# Processed by: cddbd v1.5.1PL0 Copyright (c) Steve Scherf et al.
# Submitted via: dBpowerAMP V4.0
#
DISCID=8d0b6a0b
DTITLE=bengü - baðlasan durmam
DYEAR=1900
DGENRE=Pop
TTITLE0=gel gel
TTITLE1=korkumdan aðladým
TTITLE2=baðlasan durmam
TTITLE3=git
TTITLE4=ciddi ciddi
TTITLE5=müjde
TTITLE6=beyaz atlý prens
TTITLE7=ucuz mumlar
TTITLE8=elmanýn yarýsý
TTITLE9=%80 arsýzým
TTITLE10=gel gel (azeri versiyon)
EXTD=aaa
EXTT0=
EXTT1=
EXTT2=
EXTT3=
EXTT4=
EXTT5=
EXTT6=
EXTT7=
EXTT8=
EXTT9=
EXTT10=
PLAYORDER=
